Coordinates
version=1
nRows=22
nColumns=24
inDegrees=yes

Units are S.I. units (second, meters, Newtons, ...)
Angles are in degrees.

endheader
time	pelvis_tilt	pelvis_list	pelvis_rotation	pelvis_tx	pelvis_ty	pelvis_tz	hip_flexion_r	hip_adduction_r	hip_rotation_r	knee_angle_r	ankle_angle_r	subtalar_angle_r	mtp_angle_r	hip_flexion_l	hip_adduction_l	hip_rotation_l	knee_angle_l	ankle_angle_l	subtalar_angle_l	mtp_angle_l	lumbar_extension	lumbar_bending	lumbar_rotation
      4.76000000	     -6.00904881	      1.34185899	     -4.15978098	     -1.10617103	      1.05357786	      0.05428702	    -10.17092477	      7.16192735	     -1.04912390	      4.75841656	      3.99434023	    -13.70404675	      0.00000000	     25.25284436	     -0.99938024	      1.50949974	    -15.68164555	      3.24475799	    -18.68624849	      0.00000000	     -7.95727923	     -6.65050588	     -0.07873408
      4.77000000	     -5.90151747	      0.85748055	     -4.51356420	     -1.08945664	      1.05135900	      0.05456108	    -11.07244402	      7.57956146	     -0.99000543	      4.32499270	      4.16532244	    -13.54378898	      0.00000000	     24.89926562	     -1.46327960	      2.26569005	    -11.64309250	      3.14276964	    -17.50993865	      0.00000000	     -8.25348708	     -6.01777246	      0.73336395
      4.78000000	     -5.65433044	      0.36706564	     -4.76926651	     -1.07241602	      1.04913913	      0.05476810	    -12.15658176	      7.97702183	     -0.99475814	      3.91113423	      4.30917078	    -13.29385427	      0.00000000	     24.35116879	     -1.89955093	      3.10859210	     -7.76807259	      2.89923397	    -16.61405873	      0.00000000	     -8.69607707	     -5.39695744	      1.42369938
      4.79000000	     -5.33459023	     -0.14833060	     -4.90467193	     -1.05506185	      1.04691355	      0.05482382	    -13.29667812	      8.38279295	     -1.27177491	      3.42566468	      4.56416112	    -12.62129606	      0.00000000	     23.70493771	     -2.31561178	      4.16331517	     -4.14540694	      2.32785902	    -16.42689462	      0.00000000	     -9.19696294	     -4.73859997	      1.99359929
      4.80000000	     -4.91286087	     -0.57345082	     -4.88904858	     -1.03742751	      1.04480794	      0.05470185	    -14.56746823	      8.67336866	     -1.34053949	      2.98030036	      4.52190598	    -12.32684990	      0.00000000	     23.06289653	     -2.58261547	      4.71823893	     -1.02561978	      2.10572504	    -15.80461635	      0.00000000	     -9.78728109	     -4.18181132	      2.35228007
      4.81000000	     -4.44974046	     -0.90863473	     -4.76736069	     -1.01952101	      1.04288493	      0.05439258	    -15.81230875	      8.85569786	     -1.48943354	      2.42014820	      4.41463362	    -11.92575873	      0.00000000	     22.45840936	     -2.67504008	      4.90281929	      1.59837510	      1.86913482	    -15.35946413	      0.00000000	    -10.38098530	     -3.71460550	      2.58133727
      4.82000000	     -3.94610199	     -1.10940831	     -4.54007668	     -1.00130926	      1.04122975	      0.05386084	    -17.01173920	      8.89137131	     -1.73019677	      1.72840805	      4.23045615	    -11.43485483	      0.00000000	     21.90905308	     -2.51378081	      4.62690624	      3.64864530	      1.73002597	    -14.92418502	      0.00000000	    -10.95844969	     -3.38091862	      2.66763307
      4.83000000	     -3.45008613	     -1.16237373	     -4.25879320	     -0.98278450	      1.03989367	      0.05314452	    -18.05116469	      8.76435955	     -2.29212251	      0.79774924	      4.13529780	    -10.48245746	      0.00000000	     21.49542471	     -2.07644425	      3.65242563	      5.01484256	      2.00384139	    -14.00415530	      0.00000000	    -11.45821766	     -3.18508922	      2.65532969
      4.84000000	     -2.92384926	     -1.08639788	     -3.96217442	     -0.96387814	      1.03883729	      0.05232190	    -19.05538556	      8.48924641	     -2.63752798	     -0.24060908	      3.69114630	     -9.93198574	      0.00000000	     21.09166535	     -1.43412434	      2.65033317	      5.79606106	      2.27082928	    -13.45779552	      0.00000000	    -11.89969510	     -3.12002226	      2.60486352
      4.85000000	     -2.38661459	     -0.90812504	     -3.70753676	     -0.94452751	      1.03801869	      0.05151618	    -19.97254714	      8.08797891	     -2.98979639	     -1.44905492	      3.02937829	     -9.43787467	      0.00000000	     20.68973998	     -0.67329886	      1.79147696	      6.01147186	      2.56684290	    -13.31057934	      0.00000000	    -12.24132026	     -3.16887084	      2.59578489
      4.86000000	     -1.91183828	     -0.68007074	     -3.50312131	     -0.92475741	      1.03735401	      0.05075866	    -20.66150154	      7.60805806	     -3.72246996	     -2.93203864	      2.35141751	     -8.52848004	      0.00000000	     20.40412411	      0.13702752	      0.77131281	      5.62031284	      3.01474309	    -12.83005389	      0.00000000	    -12.40558373	     -3.26543639	      2.62915949
      4.87000000	     -1.50127463	     -0.42565065	     -3.36235387	     -0.90452931	      1.03672245	      0.05007453	    -21.13487996	      7.05329828	     -4.82738749	     -4.66078887	      1.56776091	     -7.31759945	      0.00000000	     20.17219064	      0.92331584	     -0.02067479	      4.77128618	      3.31852210	    -12.47495173	      0.00000000	    -12.37492814	     -3.38468852	      2.69791106
      4.88000000	     -1.23503779	     -0.20047969	     -3.31373406	     -0.88390617	      1.03597865	      0.04947361	    -21.28260609	      6.43832991	     -6.40692419	     -6.67558431	      0.66587762	     -5.66005398	      0.00000000	     20.05743920	      1.59986291	     -0.54335397	      3.56728943	      3.37669847	    -12.17061562	      0.00000000	    -12.06649482	     -3.45851357	      2.86567587
      4.89000000	     -1.02915842	      0.02259749	     -3.38657876	     -0.86294963	      1.03518315	      0.04893560	    -21.21497446	      5.68957640	     -8.30420592	     -8.92569725	     -0.56446493	     -3.81629078	      0.00000000	     19.92421965	      2.18457604	     -0.69952371	      2.17903783	      3.02576682	    -12.11722603	      0.00000000	    -11.59669986	     -3.51499017	      3.12348776
      4.90000000	     -0.89701932	      0.27560126	     -3.55987810	     -0.84179920	      1.03433161	      0.04839618	    -20.91681898	      4.75370713	    -10.47781196	    -11.39576859	     -2.22542757	     -1.89570830	      0.00000000	     19.81039472	      2.72629024	     -0.48438268	      0.65986572	      2.15834769	    -12.41227797	      0.00000000	    -10.97941013	     -3.58093000	      3.42596025
      4.91000000	     -0.79602226	      0.59187587	     -3.80281159	     -0.82062453	      1.03351379	      0.04778726	    -20.44126804	      3.59337244	    -12.77182814	    -14.05821421	     -4.42767243	     -0.08415059	      0.00000000	     19.69831393	      3.28744228	      0.11807515	     -0.94920553	      0.75211911	    -13.25490802	      0.00000000	    -10.30548569	     -3.68588182	      3.70175880
      4.92000000	     -0.65620115	      1.01717956	     -4.09020103	     -0.79956198	      1.03285074	      0.04710353	    -19.88277713	      2.19951780	    -14.88441186	    -16.85642569	     -7.29210173	      1.16200853	      0.00000000	     19.52034776	      3.94858514	      1.27444848	     -2.60027581	     -1.22229213	    -15.04791481	      0.00000000	     -9.68457689	     -3.89189939	      3.90440267
      4.93000000	     -0.62402745	      1.51827258	     -4.36586997	     -0.77884262	      1.03226511	      0.04634776	    -19.04856002	      0.66725316	    -16.64735881	    -19.83997309	    -10.73128737	      1.72857619	      0.00000000	     19.58405673	      4.69322026	      2.31557480	     -4.52258893	     -3.02325072	    -16.85391153	      0.00000000	     -8.98926482	     -4.14759880	      3.96614995
      4.94000000	     -0.52725707	      2.16846223	     -4.63549621	     -0.75852231	      1.03197111	      0.04567115	    -18.11501608	     -1.01009906	    -17.82168040	    -22.97959864	    -14.66369389	      1.25048500	      0.00000000	     19.70858283	      5.60218436	      3.05995767	     -6.70302760	     -4.10385298	    -18.39809910	      0.00000000	     -8.43997566	     -4.58915983	      3.86885837
      4.95000000	     -0.30842503	      2.93038441	     -4.88883655	     -0.73871036	      1.03201959	      0.04508960	    -17.08206575	     -2.81290738	    -18.60224662	    -26.39201849	    -18.59066482	      0.09751134	      0.00000000	     19.80347026	      6.63390390	      3.35003487	     -9.06615437	     -4.50397019	    -19.54928448	      0.00000000	     -8.13142499	     -5.17784659	      3.65773446
      4.96000000	     -0.10831128	      3.77509517	     -5.14710973	     -0.71940563	      1.03221018	      0.04477735	    -15.78624810	     -4.60593295	    -18.71661399	    -30.05255878	    -22.47568066	     -2.06617570	      0.00000000	     19.94050647	      7.71029156	      3.18034527	    -11.47262206	     -3.95090714	    -20.15237279	      0.00000000	     -7.88634433	     -5.89766257	      3.27388022
      4.97000000	     -0.00598281	      4.67901364	     -5.43847186	     -0.70064422	      1.03243477	      0.04482612	    -14.10942724	     -6.35061349	    -18.28623749	    -33.97869992	    -26.12175485	     -5.25384935	      0.00000000	     20.12233107	      8.74740950	      2.45100073	    -13.74859950	     -2.39800832	    -19.83579952	      0.00000000	     -7.60696703	     -6.72233971	      2.84660207
